<svg xmlns="http://www.w3.org/2000/svg" viewBox="0 0 1600 1000" width="1600" height="1000">
  <defs>
    <filter id="card-shadow" x="-10%" y="-10%" width="125%" height="130%">
      <feDropShadow dx="0" dy="3" stdDeviation="5" flood-color="#0F172A" flood-opacity="0.06"/>
    </filter>
    <filter id="card-shadow-hover" x="-10%" y="-10%" width="125%" height="130%">
      <feDropShadow dx="0" dy="6" stdDeviation="10" flood-color="#0F172A" flood-opacity="0.12"/>
    </filter>
    <linearGradient id="grad-bg" x1="0%" y1="0%" x2="0%" y2="100%">
      <stop offset="0%" stop-color="#F8FAFC"/>
      <stop offset="100%" stop-color="#EDF2F7"/>
    </linearGradient>
    <linearGradient id="grad-primary" x1="0%" y1="0%" x2="100%" y2="100%">
      <stop offset="0%" stop-color="#3B82F6"/>
      <stop offset="100%" stop-color="#1D4ED8"/>
    </linearGradient>
    <linearGradient id="grad-highlight" x1="0%" y1="0%" x2="100%" y2="100%">
      <stop offset="0%" stop-color="#F59E0B"/>
      <stop offset="100%" stop-color="#D97706"/>
    </linearGradient>
    <marker id="arrowhead" markerWidth="9" markerHeight="7" refX="7" refY="3.5" orient="auto"><polygon points="0 0, 9 3.5, 0 7" fill="#64748B"/></marker>
  </defs>
  <rect width="100%" height="100%" fill="url(#grad-bg)" />
  <rect x="0" y="0" width="100%" height="4" fill="#3B82F6" />
  <text x="800.0" y="76.0" font-family="'Inter', 'Segoe UI', system-ui, sans-serif" font-size="38" font-weight="700" fill="#1E293B" text-anchor="middle" letter-spacing="-0.5">WhatsApp Architecture Diagram</text>
  <text x="800.0" y="106.0" font-family="'Inter', 'Segoe UI', system-ui, sans-serif" font-size="18" font-weight="400" fill="#475569" text-anchor="middle">How WhatsApp Works</text>
  <rect x="330.0" y="147.5" width="220.0" height="58.0" rx="8" fill="#FFFFFF" stroke="#E2E8F0" stroke-width="1" filter="url(#card-shadow)" />
  <text x="440.0" y="173.5" font-family="'Inter', 'Segoe UI', system-ui, sans-serif" font-size="22" font-weight="700" fill="#2563EB" text-anchor="middle">1 billion</text>
  <text x="440.0" y="193.5" font-family="'Inter', 'Segoe UI', system-ui, sans-serif" font-size="12" font-weight="600" fill="#475569" text-anchor="middle" letter-spacing="0.5">Users</text>
  <rect x="570.0" y="147.5" width="220.0" height="58.0" rx="8" fill="#FFFFFF" stroke="#E2E8F0" stroke-width="1" filter="url(#card-shadow)" />
  <text x="680.0" y="172.5" font-family="'Inter', 'Segoe UI', system-ui, sans-serif" font-size="16" font-weight="700" fill="#2563EB" text-anchor="middle">200 billion</text>
  <text x="680.0" y="193.5" font-family="'Inter', 'Segoe UI', system-ui, sans-serif" font-size="12" font-weight="600" fill="#475569" text-anchor="middle" letter-spacing="0.5">Messages</text>
  <rect x="810.0" y="147.5" width="220.0" height="58.0" rx="8" fill="#FFFFFF" stroke="#E2E8F0" stroke-width="1" filter="url(#card-shadow)" />
  <text x="920.0" y="173.5" font-family="'Inter', 'Segoe UI', system-ui, sans-serif" font-size="22" font-weight="700" fill="#2563EB" text-anchor="middle">100</text>
  <text x="920.0" y="193.5" font-family="'Inter', 'Segoe UI', system-ui, sans-serif" font-size="12" font-weight="600" fill="#475569" text-anchor="middle" letter-spacing="0.5">Servers</text>
  <rect x="1050.0" y="147.5" width="220.0" height="58.0" rx="8" fill="#FFFFFF" stroke="#E2E8F0" stroke-width="1" filter="url(#card-shadow)" />
  <text x="1160.0" y="173.5" font-family="'Inter', 'Segoe UI', system-ui, sans-serif" font-size="22" font-weight="700" fill="#2563EB" text-anchor="middle">10</text>
  <text x="1160.0" y="193.5" font-family="'Inter', 'Segoe UI', system-ui, sans-serif" font-size="12" font-weight="600" fill="#475569" text-anchor="middle" letter-spacing="0.5">APIs</text>
  <g id="connectors">
    <circle cx="308.0" cy="575.0" r="3.5" fill="#64748B"/>
    <line x1="308.0" y1="575.0" x2="560.0" y2="575.0" stroke="#94A3B8" stroke-width="2"  marker-end="url(#arrowhead)" />
    <circle cx="560.0" cy="575.0" r="3.5" fill="#64748B"/>
    <line x1="560.0" y1="575.0" x2="528.0" y2="575.0" stroke="#94A3B8" stroke-width="2"  marker-end="url(#arrowhead)" />
    <circle cx="528.0" cy="575.0" r="3.5" fill="#64748B"/>
    <line x1="528.0" y1="575.0" x2="758.0" y2="575.0" stroke="#94A3B8" stroke-width="2"  marker-end="url(#arrowhead)" />
    <circle cx="906.0" cy="575.0" r="3.5" fill="#64748B"/>
    <line x1="906.0" y1="575.0" x2="938.0" y2="575.0" stroke="#94A3B8" stroke-width="2"  marker-end="url(#arrowhead)" />
    <circle cx="1166.0" cy="575.0" r="3.5" fill="#64748B"/>
    <line x1="1166.0" y1="575.0" x2="1198.0" y2="575.0" stroke="#94A3B8" stroke-width="2"  marker-end="url(#arrowhead)" />
  </g>
  <g id="elements">
  <g id="element-client">
    <circle cx="234.0" cy="575.0" r="70.0" fill="url(#grad-primary)" stroke="#1D4ED8" stroke-width="1.5" filter="url(#card-shadow-hover)"/>
    <g transform="translate(222.0, 540.5) scale(1.000)"><path d="M20 21v-2a4 4 0 0 0-4-4H8a4 4 0 0 0-4 4v2" fill="none" stroke="#FFFFFF" stroke-width="2"/><circle cx="12" cy="7" r="4" fill="none" stroke="#FFFFFF" stroke-width="2"/></g>
    <text x="234.0" y="582.0" font-family="'Inter', 'Segoe UI', system-ui, sans-serif" font-size="14" font-weight="700" fill="#FFFFFF" text-anchor="middle">Client</text>
    <text x="234.0" y="603.5" font-family="'Inter', 'Segoe UI', system-ui, sans-serif" font-size="11" font-weight="400" fill="rgba(255, 255, 255, 0.92)" text-anchor="middle">User</text>
  </g>
  <g id="element-server">
    <circle cx="434.0" cy="575.0" r="90.0" fill="url(#grad-highlight)" stroke="#B45309" stroke-width="1.5" filter="url(#card-shadow-hover)"/>
    <g transform="translate(422.0, 540.5) scale(1.000)"><rect x="2" y="2" width="20" height="8" rx="2" ry="2" fill="none" stroke="#FFFFFF" stroke-width="2"/><rect x="2" y="14" width="20" height="8" rx="2" ry="2" fill="none" stroke="#FFFFFF" stroke-width="2"/><line x1="6" y1="6" x2="6.01" y2="6" stroke="#FFFFFF" stroke-width="2"/><line x1="6" y1="18" x2="6.01" y2="18" stroke="#FFFFFF" stroke-width="2"/></g>
    <text x="434.0" y="582.0" font-family="'Inter', 'Segoe UI', system-ui, sans-serif" font-size="14" font-weight="700" fill="#FFFFFF" text-anchor="middle">Server</text>
    <text x="434.0" y="603.5" font-family="'Inter', 'Segoe UI', system-ui, sans-serif" font-size="11" font-weight="400" fill="rgba(255, 255, 255, 0.92)" text-anchor="middle">WhatsApp Servers</text>
  </g>
  <g id="element-auth">
    <circle cx="643.0" cy="575.0" r="79.0" fill="#F8FAFC" stroke="#CBD5E1" stroke-width="1.5" filter="url(#card-shadow)"/>
    <g transform="translate(631.0, 531.5) scale(1.000)"><path d="M12 22s8-4 8-10V5l-8-3-8 3v7c0 6 8 10 8 10z" fill="none" stroke="#64748B" stroke-width="2"/></g>
    <text x="643.0" y="573.0" font-family="'Inter', 'Segoe UI', system-ui, sans-serif" font-size="14" font-weight="700" fill="#1E293B" text-anchor="middle">Authenticatio</text>
    <text x="643.0" y="591.0" font-family="'Inter', 'Segoe UI', system-ui, sans-serif" font-size="14" font-weight="700" fill="#1E293B" text-anchor="middle">n</text>
    <text x="643.0" y="612.5" font-family="'Inter', 'Segoe UI', system-ui, sans-serif" font-size="11" font-weight="400" fill="#475569" text-anchor="middle">Auth Server</text>
  </g>
  <g id="element-api">
    <circle cx="832.0" cy="575.0" r="70.0" fill="#F8FAFC" stroke="#CBD5E1" stroke-width="1.5" filter="url(#card-shadow)"/>
    <g transform="translate(820.0, 540.5) scale(1.000)"><polyline points="16 18 22 12 16 6" fill="none" stroke="#64748B" stroke-width="2"/><polyline points="8 6 2 12 8 18" fill="none" stroke="#64748B" stroke-width="2"/></g>
    <text x="832.0" y="582.0" font-family="'Inter', 'Segoe UI', system-ui, sans-serif" font-size="14" font-weight="700" fill="#1E293B" text-anchor="middle">APIs</text>
    <text x="832.0" y="603.5" font-family="'Inter', 'Segoe UI', system-ui, sans-serif" font-size="11" font-weight="400" fill="#475569" text-anchor="middle">WhatsApp APIs</text>
  </g>
  <g id="element-data_center">
    <circle cx="1052.0" cy="575.0" r="110.0" fill="url(#grad-highlight)" stroke="#B45309" stroke-width="1.5" filter="url(#card-shadow-hover)"/>
    <g transform="translate(1040.0, 540.5) scale(1.000)"><ellipse cx="12" cy="5" rx="9" ry="3" fill="none" stroke="#FFFFFF" stroke-width="2"/><path d="M21 12c0 1.66-4 3-9 3s-9-1.34-9-3" fill="none" stroke="#FFFFFF" stroke-width="2"/><path d="M3 5v14c0 1.66 4 3 9 3s9-1.34 9-3V5" fill="none" stroke="#FFFFFF" stroke-width="2"/></g>
    <text x="1052.0" y="582.0" font-family="'Inter', 'Segoe UI', system-ui, sans-serif" font-size="14" font-weight="700" fill="#FFFFFF" text-anchor="middle">Data Centers</text>
    <text x="1052.0" y="603.5" font-family="'Inter', 'Segoe UI', system-ui, sans-serif" font-size="11" font-weight="400" fill="rgba(255, 255, 255, 0.92)" text-anchor="middle">WhatsApp Data Centers</text>
  </g>
  <g id="element-flow">
    <polygon points="1319.0,489.0 1436.0,575.0 1319.0,661.0 1202.0,575.0" fill="#FFFFFF" stroke="#E2E8F0" stroke-width="1.5" filter="url(#card-shadow)"/>
    <g transform="translate(1307.0, 540.5) scale(1.000)"><path d="M8 9l3 3-3 3" fill="none" stroke="#3B82F6" stroke-width="2"/><line x1="13" y1="15" x2="16" y2="15" stroke="#3B82F6" stroke-width="2"/><rect x="3" y="4" width="18" height="16" rx="2" ry="2" fill="none" stroke="#3B82F6" stroke-width="2"/></g>
    <text x="1319.0" y="582.0" font-family="'Inter', 'Segoe UI', system-ui, sans-serif" font-size="14" font-weight="700" fill="#1E293B" text-anchor="middle">Flow</text>
    <text x="1319.0" y="603.5" font-family="'Inter', 'Segoe UI', system-ui, sans-serif" font-size="11" font-weight="400" fill="#475569" text-anchor="middle">Messages</text>
  </g>
  </g>
  <text x="800.0" y="942.5" font-family="'Inter', 'Segoe UI', system-ui, sans-serif" font-size="12" fill="#94A3B8" text-anchor="middle">Source: [WhatsApp Architecture Diagram]</text>
</svg>