<svg xmlns="http://www.w3.org/2000/svg" viewBox="0 0 1600 1000" width="1600" height="1000">
  <defs>
    <filter id="card-shadow" x="-10%" y="-10%" width="125%" height="130%">
      <feDropShadow dx="0" dy="3" stdDeviation="5" flood-color="#0F172A" flood-opacity="0.06"/>
    </filter>
    <filter id="card-shadow-hover" x="-10%" y="-10%" width="125%" height="130%">
      <feDropShadow dx="0" dy="6" stdDeviation="10" flood-color="#0F172A" flood-opacity="0.12"/>
    </filter>
    <linearGradient id="grad-bg" x1="0%" y1="0%" x2="0%" y2="100%">
      <stop offset="0%" stop-color="#F8FAFC"/>
      <stop offset="100%" stop-color="#EDF2F7"/>
    </linearGradient>
    <linearGradient id="grad-primary" x1="0%" y1="0%" x2="100%" y2="100%">
      <stop offset="0%" stop-color="#3B82F6"/>
      <stop offset="100%" stop-color="#1D4ED8"/>
    </linearGradient>
    <linearGradient id="grad-highlight" x1="0%" y1="0%" x2="100%" y2="100%">
      <stop offset="0%" stop-color="#F59E0B"/>
      <stop offset="100%" stop-color="#D97706"/>
    </linearGradient>
    <marker id="arrowhead" markerWidth="9" markerHeight="7" refX="7" refY="3.5" orient="auto"><polygon points="0 0, 9 3.5, 0 7" fill="#64748B"/></marker>
  </defs>
  <rect width="100%" height="100%" fill="url(#grad-bg)" />
  <rect x="0" y="0" width="100%" height="4" fill="#3B82F6" />
  <text x="800.0" y="76.0" font-family="'Inter', 'Segoe UI', system-ui, sans-serif" font-size="38" font-weight="700" fill="#1E293B" text-anchor="middle" letter-spacing="-0.5">Measured Thickness Assessment Formula</text>
  <text x="800.0" y="106.0" font-family="'Inter', 'Segoe UI', system-ui, sans-serif" font-size="18" font-weight="400" fill="#475569" text-anchor="middle">Cylindrical Shell Internal Pressure Assessment</text>
  <rect x="330.0" y="147.5" width="220.0" height="58.0" rx="8" fill="#FFFFFF" stroke="#E2E8F0" stroke-width="1" filter="url(#card-shadow)" />
  <text x="440.0" y="171.5" font-family="'Inter', 'Segoe UI', system-ui, sans-serif" font-size="13" font-weight="700" fill="#2563EB" text-anchor="middle">Margin = tmin - treq</text>
  <text x="440.0" y="193.5" font-family="'Inter', 'Segoe UI', system-ui, sans-serif" font-size="12" font-weight="600" fill="#475569" text-anchor="middle" letter-spacing="0.5">Formula</text>
  <rect x="570.0" y="147.5" width="220.0" height="58.0" rx="8" fill="#FFFFFF" stroke="#E2E8F0" stroke-width="1" filter="url(#card-shadow)" />
  <text x="680.0" y="171.5" font-family="'Inter', 'Segoe UI', system-ui, sans-serif" font-size="13" font-weight="700" fill="#2563EB" text-anchor="middle">Lowest valid measurement</text>
  <text x="680.0" y="193.5" font-family="'Inter', 'Segoe UI', system-ui, sans-serif" font-size="12" font-weight="600" fill="#475569" text-anchor="middle" letter-spacing="0.5">tmin</text>
  <rect x="810.0" y="147.5" width="220.0" height="58.0" rx="8" fill="#FFFFFF" stroke="#E2E8F0" stroke-width="1" filter="url(#card-shadow)" />
  <text x="920.0" y="173.5" font-family="'Inter', 'Segoe UI', system-ui, sans-serif" font-size="22" font-weight="700" fill="#2563EB" text-anchor="middle">tp + CA</text>
  <text x="920.0" y="193.5" font-family="'Inter', 'Segoe UI', system-ui, sans-serif" font-size="12" font-weight="600" fill="#475569" text-anchor="middle" letter-spacing="0.5">treq</text>
  <rect x="1050.0" y="147.5" width="220.0" height="58.0" rx="8" fill="#FFFFFF" stroke="#E2E8F0" stroke-width="1" filter="url(#card-shadow)" />
  <text x="1160.0" y="171.5" font-family="'Inter', 'Segoe UI', system-ui, sans-serif" font-size="13" font-weight="700" fill="#2563EB" text-anchor="middle">(P × R) (S × E - 0.6 × P)</text>
  <text x="1160.0" y="193.5" font-family="'Inter', 'Segoe UI', system-ui, sans-serif" font-size="12" font-weight="600" fill="#475569" text-anchor="middle" letter-spacing="0.5">tp</text>
  <g id="connectors">
    <circle cx="457.0" cy="575.0" r="3.5" fill="#64748B"/>
    <line x1="457.0" y1="575.0" x2="489.0" y2="575.0" stroke="#94A3B8" stroke-width="2"  marker-end="url(#arrowhead)" />
    <circle cx="457.0" cy="575.0" r="3.5" fill="#64748B"/>
    <line x1="457.0" y1="575.0" x2="729.0" y2="575.0" stroke="#94A3B8" stroke-width="2"  marker-end="url(#arrowhead)" />
    <circle cx="457.0" cy="575.0" r="3.5" fill="#64748B"/>
    <line x1="457.0" y1="575.0" x2="969.0" y2="575.0" stroke="#94A3B8" stroke-width="2"  marker-end="url(#arrowhead)" />
    <circle cx="457.0" cy="575.0" r="3.5" fill="#64748B"/>
    <line x1="457.0" y1="575.0" x2="1203.0" y2="575.0" stroke="#94A3B8" stroke-width="2"  marker-end="url(#arrowhead)" />
  </g>
  <g id="elements">
  <g id="element-formula">
    <circle cx="323.0" cy="575.0" r="130.0" fill="url(#grad-primary)" stroke="#1D4ED8" stroke-width="1.5" filter="url(#card-shadow-hover)"/>
    <g transform="translate(311.0, 531.5) scale(1.000)"><polyline points="16 18 22 12 16 6" fill="none" stroke="#FFFFFF" stroke-width="2"/><polyline points="8 6 2 12 8 18" fill="none" stroke="#FFFFFF" stroke-width="2"/></g>
    <text x="323.0" y="573.0" font-family="'Inter', 'Segoe UI', system-ui, sans-serif" font-size="14" font-weight="700" fill="#FFFFFF" text-anchor="middle">Measured Thickness</text>
    <text x="323.0" y="591.0" font-family="'Inter', 'Segoe UI', system-ui, sans-serif" font-size="14" font-weight="700" fill="#FFFFFF" text-anchor="middle">Assessment Formula</text>
    <text x="323.0" y="612.5" font-family="'Inter', 'Segoe UI', system-ui, sans-serif" font-size="11" font-weight="400" fill="rgba(255, 255, 255, 0.92)" text-anchor="middle">Margin = tmin - treq</text>
  </g>
  <g id="element-tmin">
    <circle cx="593.0" cy="575.0" r="100.0" fill="#F8FAFC" stroke="#CBD5E1" stroke-width="1.5" filter="url(#card-shadow)"/>
    <g transform="translate(581.0, 531.5) scale(1.000)"><path d="M12 22s8-4 8-10V5l-8-3-8 3v7c0 6 8 10 8 10z" fill="none" stroke="#64748B" stroke-width="2"/></g>
    <text x="593.0" y="573.0" font-family="'Inter', 'Segoe UI', system-ui, sans-serif" font-size="14" font-weight="700" fill="#1E293B" text-anchor="middle">Lowest Valid</text>
    <text x="593.0" y="591.0" font-family="'Inter', 'Segoe UI', system-ui, sans-serif" font-size="14" font-weight="700" fill="#1E293B" text-anchor="middle">Measurement</text>
    <text x="593.0" y="612.5" font-family="'Inter', 'Segoe UI', system-ui, sans-serif" font-size="11" font-weight="400" fill="#475569" text-anchor="middle">tmin</text>
  </g>
  <g id="element-treq">
    <circle cx="833.0" cy="575.0" r="100.0" fill="#F8FAFC" stroke="#CBD5E1" stroke-width="1.5" filter="url(#card-shadow)"/>
    <g transform="translate(821.0, 531.5) scale(1.000)"><path d="M12 22s8-4 8-10V5l-8-3-8 3v7c0 6 8 10 8 10z" fill="none" stroke="#64748B" stroke-width="2"/></g>
    <text x="833.0" y="573.0" font-family="'Inter', 'Segoe UI', system-ui, sans-serif" font-size="14" font-weight="700" fill="#1E293B" text-anchor="middle">Calculated</text>
    <text x="833.0" y="591.0" font-family="'Inter', 'Segoe UI', system-ui, sans-serif" font-size="14" font-weight="700" fill="#1E293B" text-anchor="middle">Minimum Requi...</text>
    <text x="833.0" y="612.5" font-family="'Inter', 'Segoe UI', system-ui, sans-serif" font-size="11" font-weight="400" fill="#475569" text-anchor="middle">treq = tp + CA</text>
  </g>
  <g id="element-tp">
    <circle cx="1070.0" cy="575.0" r="97.0" fill="#F8FAFC" stroke="#CBD5E1" stroke-width="1.5" filter="url(#card-shadow)"/>
    <g transform="translate(1058.0, 524.0) scale(1.000)"><path d="M12 22s8-4 8-10V5l-8-3-8 3v7c0 6 8 10 8 10z" fill="none" stroke="#64748B" stroke-width="2"/></g>
    <text x="1070.0" y="565.5" font-family="'Inter', 'Segoe UI', system-ui, sans-serif" font-size="14" font-weight="700" fill="#1E293B" text-anchor="middle">Pressure</text>
    <text x="1070.0" y="583.5" font-family="'Inter', 'Segoe UI', system-ui, sans-serif" font-size="14" font-weight="700" fill="#1E293B" text-anchor="middle">Thickness</text>
    <text x="1070.0" y="605.0" font-family="'Inter', 'Segoe UI', system-ui, sans-serif" font-size="11" font-weight="400" fill="#475569" text-anchor="middle">(P × R) (S × E - 0.6</text>
    <text x="1070.0" y="620.0" font-family="'Inter', 'Segoe UI', system-ui, sans-serif" font-size="11" font-weight="400" fill="#475569" text-anchor="middle">× P)</text>
  </g>
  <g id="element-ca">
    <circle cx="1307.0" cy="575.0" r="100.0" fill="#F8FAFC" stroke="#CBD5E1" stroke-width="1.5" filter="url(#card-shadow)"/>
    <g transform="translate(1295.0, 531.5) scale(1.000)"><path d="M12 22s8-4 8-10V5l-8-3-8 3v7c0 6 8 10 8 10z" fill="none" stroke="#64748B" stroke-width="2"/></g>
    <text x="1307.0" y="573.0" font-family="'Inter', 'Segoe UI', system-ui, sans-serif" font-size="14" font-weight="700" fill="#1E293B" text-anchor="middle">Corrosion</text>
    <text x="1307.0" y="591.0" font-family="'Inter', 'Segoe UI', system-ui, sans-serif" font-size="14" font-weight="700" fill="#1E293B" text-anchor="middle">Allowance</text>
    <text x="1307.0" y="612.5" font-family="'Inter', 'Segoe UI', system-ui, sans-serif" font-size="11" font-weight="400" fill="#475569" text-anchor="middle">CA</text>
  </g>
  </g>
  <text x="800.0" y="942.5" font-family="'Inter', 'Segoe UI', system-ui, sans-serif" font-size="12" fill="#94A3B8" text-anchor="middle">Source: Pressure_Vessel_Engineering_Procedure.pdf | Page: 2 | Similarity: 0.70</text>
</svg>